<?xml version="1.0" encoding="utf-8"?>
<!-- Generator: Adobe Illustrator 18.1.1, SVG Export Plug-In . SVG Version: 6.00 Build 0)  -->
<svg version="1.1" id="Layer_1" xmlns="http://www.w3.org/2000/svg" xmlns:xlink="http://www.w3.org/1999/xlink" x="0px" y="0px"
	 viewBox="-293 385 24 24" enable-background="new -293 385 24 24" xml:space="preserve">
<path fill="#ED1C24" d="M-270.8,389c0.3,0.3,0.3,0.8,0,1.1l-6.3,6.3c-0.3,0.3-0.3,0.8,0,1.1l6.3,6.3c0.3,0.3,0.3,0.8,0,1.1l-2.3,2.3
	c-0.3,0.3-0.8,0.3-1.1,0l-6.3-6.3c-0.3-0.3-0.8-0.3-1.1,0l-6.3,6.3c-0.3,0.3-0.8,0.3-1.1,0l-2.3-2.3c-0.3-0.3-0.3-0.8,0-1.1l6.3-6.3
	c0.3-0.3,0.3-0.8,0-1.1l-6.3-6.3c-0.3-0.3-0.3-0.8,0-1.1l2.3-2.3c0.3-0.3,0.8-0.3,1.1,0l6.3,6.3c0.3,0.3,0.8,0.3,1.1,0l6.3-6.3
	c0.3-0.3,0.8-0.3,1.1,0L-270.8,389z"/>
</svg>
